# Blender v2.77 (sub 0) OBJ File: ''
# www.blender.org
mtllib ../Data/Models/testing2.mtl
o cube.001
v -0.504176 1.382163 -1.352105
v -0.504176 1.382163 -0.352105
v 0.495824 1.382163 -0.352105
v 0.495824 1.382163 -1.352105
v -0.504176 0.382163 -1.352105
v -0.504176 0.382163 -0.352105
v 0.495824 0.382163 -0.352105
v 0.495824 0.382163 -1.352105
vt 0.0000 1.0000
vt 0.0000 0.0000
vt 1.0000 0.0000
vt 1.0000 1.0000
vt 0.0000 0.0000
vt 1.0000 0.0000
vt 1.0000 1.0000
vt 0.0000 1.0000
vt 0.0000 0.0000
vt 1.0000 0.0000
vt 0.0000 1.0000
vt 0.0000 0.0000
vt 1.0000 0.0000
vt 1.0000 1.0000
vt 0.0000 1.0000
vt 0.0000 0.0000
vt 1.0000 0.0000
vt 1.0000 1.0000
vt 0.0000 1.0000
vt 1.0000 1.0000
vn 0.0000 1.0000 0.0000
vn -1.0000 0.0000 0.0000
vn 1.0000 -0.0000 0.0000
vn 0.0000 0.0000 -1.0000
vn 0.0000 -0.0000 1.0000
vn 0.0000 -1.0000 -0.0000
usemtl default
s 1
f 1/1/1 2/2/1 3/3/1
f 1/1/1 3/3/1 4/4/1
f 1/1/2 5/5/2 6/6/2
f 1/1/2 6/6/2 2/7/2
f 3/8/3 7/9/3 8/10/3
f 3/8/3 8/10/3 4/4/3
f 4/11/4 8/12/4 5/13/4
f 4/11/4 5/13/4 1/14/4
f 2/15/5 6/16/5 7/17/5
f 2/15/5 7/17/5 3/18/5
f 6/19/6 5/5/6 8/10/6
f 6/19/6 8/10/6 7/20/6
o cube
v -0.500000 0.500000 -0.500000
v -0.500000 0.500000 0.500000
v 0.500000 0.500000 0.500000
v 0.500000 0.500000 -0.500000
v -0.500000 -0.500000 -0.500000
v -0.500000 -0.500000 0.500000
v 0.500000 -0.500000 0.500000
v 0.500000 -0.500000 -0.500000
vt 0.0000 1.0000
vt 0.0000 0.0000
vt 1.0000 0.0000
vt 1.0000 1.0000
vt 0.0000 0.0000
vt 1.0000 0.0000
vt 1.0000 1.0000
vt 0.0000 1.0000
vt 0.0000 0.0000
vt 1.0000 0.0000
vt 0.0000 1.0000
vt 0.0000 0.0000
vt 1.0000 0.0000
vt 1.0000 1.0000
vt 0.0000 1.0000
vt 0.0000 0.0000
vt 1.0000 0.0000
vt 1.0000 1.0000
vt 0.0000 1.0000
vt 1.0000 1.0000
vn 0.0000 1.0000 0.0000
vn -1.0000 -0.0000 0.0000
vn 1.0000 -0.0000 0.0000
vn 0.0000 0.0000 -1.0000
vn 0.0000 -0.0000 1.0000
vn 0.0000 -1.0000 -0.0000
usemtl default
s 1
f 9/21/7 10/22/7 11/23/7
f 9/21/7 11/23/7 12/24/7
f 9/21/8 13/25/8 14/26/8
f 9/21/8 14/26/8 10/27/8
f 11/28/9 15/29/9 16/30/9
f 11/28/9 16/30/9 12/24/9
f 12/31/10 16/32/10 13/33/10
f 12/31/10 13/33/10 9/34/10
f 10/35/11 14/36/11 15/37/11
f 10/35/11 15/37/11 11/38/11
f 14/39/12 13/25/12 16/30/12
f 14/39/12 16/30/12 15/40/12
